<?xml version="1.0" encoding="utf-8"?>
<!-- Generator: Adobe Illustrator 28.1.0, SVG Export Plug-In . SVG Version: 6.00 Build 0)  -->
<svg version="1.1" id="Layer_1" xmlns="http://www.w3.org/2000/svg" xmlns:xlink="http://www.w3.org/1999/xlink" x="0px" y="0px"
	 width="593.138px" height="137.89px" viewBox="0 0 593.138 137.89" enable-background="new 0 0 593.138 137.89"
	 xml:space="preserve">
<path d="M41.749,83.204l37.615,34.142H54.287L32.161,96.325v21.021H12.689V19.07h19.472v52.217l19.914-18.879h23.896L41.749,83.204z
	 M87.329,117.346H106.8V52.409H87.329V117.346z M97.065,22.284c-3.836,0-7.007,1.071-9.514,3.214
	c-2.508,2.142-3.762,4.866-3.762,8.167c0,3.303,1.254,6.025,3.762,8.167c2.507,2.142,5.678,3.213,9.514,3.213
	c3.835,0,7.007-1.071,9.514-3.213s3.762-4.864,3.762-8.167c0-3.302-1.255-6.025-3.762-8.167
	C104.071,23.355,100.9,22.284,97.065,22.284z M187.634,52.409h-23.896l-19.914,18.879V19.071h-19.472v98.275h19.472V96.325
	l22.126,21.021h25.076l-37.615-34.142L187.634,52.409z M266.402,59.907c5.802,5.891,8.703,14.192,8.703,24.904
	c0,6.695-1.45,12.609-4.351,17.74c-2.901,5.133-6.883,9.104-11.948,11.917c-5.066,2.811-10.646,4.218-16.742,4.218
	c-9.54,0-17.162-3.348-22.864-10.041c-0.493,3.928-2.163,7.32-5.016,10.175l-15.783-5.624c1.277-2.052,2.212-4.127,2.802-6.226
	c0.59-2.097,0.885-4.707,0.885-7.833V19.07h19.472v39.765c2.656-2.32,5.85-4.194,9.588-5.623c3.736-1.427,7.719-2.142,11.948-2.142
	C252.831,51.071,260.6,54.016,266.402,59.907z M255.635,84.811c0-13.121-5.753-19.682-17.258-19.682
	c-5.509,0-9.736,1.807-12.686,5.422c-2.95,3.615-4.426,8.013-4.426,13.188v2.411c0,5.624,1.498,10.109,4.499,13.456
	c2.999,3.347,7.399,5.02,13.202,5.02c5.407,0,9.538-1.717,12.391-5.155C254.208,96.037,255.635,91.148,255.635,84.811z
	 M355.054,106.902c0.59,2.054,1.524,4.107,2.802,6.159l-15.782,5.624c-2.951-2.945-4.623-6.293-5.016-10.041h-0.295
	c-2.753,3.213-6.122,5.69-10.104,7.431c-3.983,1.741-8.334,2.611-13.055,2.611c-6.098,0-11.556-1.295-16.373-3.882
	c-4.82-2.589-8.606-6.338-11.359-11.247c-2.753-4.909-4.131-10.755-4.131-17.54c0-7.229,1.402-13.476,4.204-18.744
	c2.802-5.265,6.734-9.282,11.8-12.05c5.063-2.766,10.989-4.15,17.774-4.15c7.965,0,14.603,2.724,19.914,8.167V52.41h18.733v46.727
	C354.17,102.263,354.465,104.851,355.054,106.902z M334.994,83.739c0-5.176-1.451-9.573-4.351-13.188
	c-2.902-3.615-7.058-5.422-12.464-5.422c-5.509,0-9.713,1.787-12.613,5.356c-2.901,3.571-4.351,8.749-4.351,15.531
	c0,6.07,1.402,10.691,4.204,13.858c2.802,3.17,6.859,4.753,12.17,4.753c5.701,0,10.03-1.673,12.98-5.02
	c2.951-3.348,4.426-7.833,4.426-13.456v-2.412H334.994z M418.115,102.819c-2.902,1.028-6.172,1.54-9.809,1.54
	c-6.393,0-11.384-1.606-14.972-4.82c-3.591-3.213-5.384-8.076-5.384-14.593c0-6.604,1.77-11.514,5.311-14.728
	c3.54-3.213,8.408-4.82,14.603-4.82c7.472,0,14.061,2.099,19.766,6.293l6.638-11.649c-2.95-2.677-6.835-4.841-11.653-6.494
	c-4.82-1.651-10.03-2.477-15.637-2.477c-12.096,0-21.586,2.991-28.468,8.97c-6.884,5.981-10.325,14.282-10.325,24.904
	c0,10.534,3.489,18.791,10.473,24.769c6.982,5.982,16.669,8.971,29.059,8.971c5.802,0,11.26-1.004,16.374-3.013
	c5.112-2.008,9.293-4.752,12.538-8.233l-10.178-9.641C423.794,100.12,421.015,101.793,418.115,102.819z M511.709,52.409h-23.897
	l-19.913,18.879V19.071h-19.472v98.275h19.472V96.325l22.126,21.021h25.076l-37.615-34.142L511.709,52.409z M577.791,90.3
	c-1.77-2.677-4.549-4.998-8.333-6.962c-3.787-1.963-9.024-3.883-15.71-5.757c-4.229-1.159-7.376-2.142-9.441-2.946
	c-2.065-0.804-3.517-1.584-4.351-2.343c-0.837-0.757-1.254-1.718-1.254-2.878c0-1.426,0.786-2.521,2.36-3.28
	c1.572-0.757,3.983-1.138,7.228-1.138c3.637,0,7.128,0.424,10.473,1.272c3.342,0.849,7.081,2.298,11.211,4.352l6.638-11.515
	c-8.36-5.356-17.752-8.033-28.174-8.033c-9.244,0-16.423,1.606-21.535,4.82c-5.114,3.213-7.67,7.721-7.67,13.523
	c0,5.267,2.014,9.529,6.047,12.787c4.032,3.259,10.916,6.271,20.651,9.037c4.426,1.251,7.719,2.322,9.884,3.213
	c2.161,0.893,3.564,1.741,4.203,2.545c0.639,0.803,0.96,1.787,0.96,2.945c0,1.518-0.788,2.7-2.36,3.549
	c-1.575,0.849-3.886,1.272-6.933,1.272c-4.82,0-9.344-0.847-13.571-2.544c-4.228-1.695-8.016-4.15-11.358-7.365l-10.916,10.579
	c4.621,4.284,10.005,7.564,16.152,9.841c6.145,2.276,12.709,3.415,19.693,3.415c8.947,0,15.98-1.673,21.094-5.021
	c5.112-3.347,7.67-7.786,7.67-13.322C580.445,96.325,579.562,92.977,577.791,90.3z"/>
</svg>
