<?xml version="1.0" encoding="utf-8"?>
<!-- Generator: Adobe Illustrator 28.1.0, SVG Export Plug-In . SVG Version: 6.00 Build 0)  -->
<svg version="1.1" id="Layer_1" xmlns="http://www.w3.org/2000/svg" xmlns:xlink="http://www.w3.org/1999/xlink" x="0px" y="0px"
	 width="595.276px" height="841.89px" viewBox="0 0 595.276 841.89" enable-background="new 0 0 595.276 841.89"
	 xml:space="preserve">
<path d="M18.308,23.464l7.633,7.633h-5.089l-4.49-4.7v4.7H12.41V9.125h3.952V20.8l4.041-4.221h4.849L18.308,23.464z M27.558,31.098
	h3.952V16.579h-3.952V31.098z M29.533,9.844c-0.778,0-1.422,0.239-1.931,0.719c-0.509,0.479-0.763,1.088-0.763,1.826
	c0,0.739,0.254,1.347,0.763,1.826c0.509,0.479,1.152,0.718,1.931,0.718c0.778,0,1.422-0.239,1.931-0.718s0.763-1.087,0.763-1.826
	c0-0.738-0.255-1.347-0.763-1.826C30.955,10.083,30.312,9.844,29.533,9.844z M47.913,16.579h-4.849L39.023,20.8V9.125h-3.952v21.972
	h3.952v-4.7l4.49,4.7h5.089l-7.633-7.633L47.913,16.579z M63.899,18.255c1.177,1.317,1.766,3.173,1.766,5.568
	c0,1.497-0.294,2.819-0.883,3.966c-0.589,1.148-1.397,2.036-2.425,2.664c-1.028,0.629-2.161,0.943-3.398,0.943
	c-1.936,0-3.483-0.748-4.64-2.245c-0.1,0.878-0.439,1.637-1.018,2.275l-3.203-1.257c0.259-0.459,0.449-0.923,0.569-1.392
	c0.12-0.469,0.18-1.052,0.18-1.751V9.125h3.952v8.891c0.539-0.519,1.187-0.938,1.946-1.257c0.758-0.319,1.567-0.479,2.425-0.479
	C61.144,16.28,62.721,16.938,63.899,18.255z M61.713,23.824c0-2.934-1.168-4.401-3.502-4.401c-1.118,0-1.976,0.404-2.574,1.212
	c-0.599,0.808-0.898,1.791-0.898,2.949v0.539c0,1.257,0.304,2.26,0.913,3.008c0.609,0.748,1.502,1.122,2.679,1.122
	c1.097,0,1.936-0.384,2.515-1.153C61.424,26.333,61.713,25.24,61.713,23.824z M81.889,28.763c0.12,0.459,0.309,0.918,0.569,1.377
	l-3.203,1.257c-0.599-0.658-0.938-1.407-1.018-2.245h-0.06c-0.559,0.718-1.242,1.272-2.05,1.661
	c-0.808,0.389-1.691,0.584-2.649,0.584c-1.238,0-2.345-0.29-3.323-0.868c-0.978-0.579-1.747-1.417-2.305-2.515
	c-0.559-1.098-0.838-2.405-0.838-3.922c0-1.616,0.285-3.013,0.853-4.191c0.569-1.177,1.367-2.075,2.395-2.694
	c1.028-0.618,2.23-0.928,3.607-0.928c1.616,0,2.964,0.609,4.041,1.826v-1.527h3.802v10.447C81.71,27.725,81.77,28.304,81.889,28.763
	z M77.818,23.584c0-1.157-0.294-2.14-0.883-2.949c-0.589-0.808-1.432-1.212-2.529-1.212c-1.118,0-1.971,0.399-2.56,1.197
	c-0.589,0.798-0.883,1.956-0.883,3.472c0,1.357,0.285,2.39,0.853,3.098c0.569,0.709,1.392,1.063,2.47,1.063
	c1.157,0,2.036-0.374,2.634-1.122c0.599-0.748,0.898-1.751,0.898-3.008L77.818,23.584L77.818,23.584z M94.687,27.85
	c-0.589,0.23-1.252,0.344-1.991,0.344c-1.297,0-2.31-0.359-3.038-1.078c-0.729-0.718-1.093-1.806-1.093-3.263
	c0-1.477,0.359-2.574,1.078-3.293c0.718-0.718,1.706-1.078,2.964-1.078c1.516,0,2.854,0.469,4.011,1.407l1.347-2.604
	c-0.599-0.599-1.387-1.082-2.365-1.452c-0.978-0.369-2.036-0.554-3.173-0.554c-2.455,0-4.381,0.669-5.777,2.006
	c-1.397,1.337-2.095,3.193-2.095,5.568c0,2.355,0.708,4.201,2.125,5.538c1.417,1.337,3.383,2.006,5.897,2.006
	c1.177,0,2.285-0.224,3.323-0.674c1.037-0.449,1.886-1.063,2.544-1.841l-2.065-2.155C95.839,27.246,95.275,27.62,94.687,27.85z
	 M113.681,16.579h-4.85L104.79,20.8V9.125h-3.952v21.972h3.952v-4.7l4.49,4.7h5.089l-7.633-7.633L113.681,16.579z M127.091,25.051
	c-0.359-0.599-0.923-1.117-1.691-1.557c-0.769-0.439-1.831-0.868-3.188-1.287c-0.858-0.259-1.497-0.479-1.916-0.659
	c-0.419-0.18-0.714-0.354-0.883-0.524c-0.17-0.169-0.254-0.384-0.254-0.644c0-0.319,0.16-0.564,0.479-0.733
	c0.319-0.169,0.808-0.254,1.467-0.254c0.738,0,1.447,0.095,2.125,0.284c0.678,0.19,1.437,0.514,2.275,0.973l1.347-2.574
	c-1.697-1.197-3.602-1.796-5.718-1.796c-1.876,0-3.333,0.359-4.37,1.078c-1.038,0.718-1.557,1.726-1.557,3.023
	c0,1.178,0.409,2.131,1.227,2.859c0.818,0.729,2.215,1.402,4.191,2.021c0.898,0.28,1.567,0.519,2.006,0.718
	c0.439,0.2,0.723,0.389,0.853,0.569c0.13,0.18,0.195,0.399,0.195,0.658c0,0.339-0.16,0.604-0.479,0.793
	c-0.32,0.19-0.789,0.284-1.407,0.284c-0.978,0-1.896-0.189-2.754-0.569c-0.858-0.379-1.627-0.928-2.305-1.647l-2.215,2.365
	c0.938,0.958,2.03,1.691,3.278,2.2c1.247,0.509,2.579,0.763,3.996,0.763c1.816,0,3.243-0.374,4.281-1.123
	c1.037-0.748,1.557-1.741,1.557-2.979C127.63,26.398,127.451,25.649,127.091,25.051z"/>
</svg>
